<?xml version="1.0" standalone="no"?>
<!DOCTYPE svg PUBLIC "-//W3C//DTD SVG 20010904//EN"
 "http://www.w3.org/TR/2001/REC-SVG-20010904/DTD/svg10.dtd">
<svg version="1.0" xmlns="http://www.w3.org/2000/svg"
 width="180.000000pt" height="180.000000pt" viewBox="0 0 180.000000 180.000000"
 preserveAspectRatio="xMidYMid meet">
<metadata>
Created by potrace 1.11, written by Peter Selinger 2001-2013
</metadata>
<g transform="translate(0.000000,180.000000) scale(0.100000,-0.100000)"
fill="#000000" stroke="none">
<path d="M213 1781 c-63 -21 -115 -60 -154 -114 -59 -82 -59 -80 -56 -787 l2
-645 27 -56 c33 -66 90 -122 156 -152 47 -22 52 -22 702 -24 628 -1 657 -1
706 18 71 27 137 88 171 157 l28 57 2 655 c1 635 1 657 -19 708 -25 67 -97
144 -163 174 l-50 23 -650 2 c-600 2 -654 1 -702 -16z"/>
</g>
</svg>
